<svg width="288" height="45" viewBox="0 0 288 45" fill="none" xmlns="http://www.w3.org/2000/svg">
<path d="M33.6 18H35.008V11.84C35.008 10.608 34.896 9.36 34.832 8.176H34.896L36.16 10.592L40.432 18H41.952V6.256H40.544V12.368C40.544 13.584 40.656 14.896 40.736 16.08H40.656L39.408 13.664L35.136 6.256H33.6V18ZM48.3949 18.208C50.5229 18.208 52.4269 16.544 52.4269 13.664C52.4269 10.768 50.5229 9.088 48.3949 9.088C46.2669 9.088 44.3629 10.768 44.3629 13.664C44.3629 16.544 46.2669 18.208 48.3949 18.208ZM48.3949 16.992C46.8909 16.992 45.8829 15.664 45.8829 13.664C45.8829 11.664 46.8909 10.304 48.3949 10.304C49.8989 10.304 50.9229 11.664 50.9229 13.664C50.9229 15.664 49.8989 16.992 48.3949 16.992ZM54.2781 21.04C55.7181 20.432 56.6141 19.232 56.6141 17.696C56.6141 16.624 56.1501 15.968 55.3821 15.968C54.7901 15.968 54.2781 16.368 54.2781 16.992C54.2781 17.664 54.7901 18.016 55.3501 18.016C55.4141 18.016 55.4621 18.016 55.5261 18C55.5261 18.944 54.9341 19.728 53.9261 20.176L54.2781 21.04ZM64.9014 18.208C67.1894 18.208 68.1174 16.576 68.1174 14.56V6.256H66.6454V14.416C66.6454 16.192 66.0214 16.912 64.7574 16.912C63.9094 16.912 63.2534 16.528 62.7254 15.6L61.6694 16.352C62.3574 17.568 63.4134 18.208 64.9014 18.208ZM74.6635 18.208C75.8475 18.208 76.7755 17.808 77.5435 17.312L77.0155 16.352C76.3755 16.784 75.6875 17.04 74.8395 17.04C73.1915 17.04 72.0555 15.856 71.9595 14H77.8155C77.8475 13.792 77.8795 13.488 77.8795 13.168C77.8795 10.688 76.6315 9.088 74.4235 9.088C72.4075 9.088 70.5035 10.848 70.5035 13.664C70.5035 16.528 72.3595 18.208 74.6635 18.208ZM71.9435 12.944C72.1195 11.248 73.2075 10.256 74.4395 10.256C75.7995 10.256 76.5995 11.2 76.5995 12.944H71.9435ZM82.2909 18.208C84.3389 18.208 85.4589 17.04 85.4589 15.632C85.4589 13.984 84.0669 13.472 82.8029 12.992C81.8269 12.624 80.9309 12.32 80.9309 11.488C80.9309 10.816 81.4429 10.24 82.5469 10.24C83.3149 10.24 83.9229 10.56 84.5149 11.008L85.2189 10.064C84.5469 9.536 83.6029 9.088 82.5309 9.088C80.6429 9.088 79.5229 10.176 79.5229 11.552C79.5229 13.024 80.8509 13.616 82.0669 14.064C83.0269 14.432 84.0509 14.816 84.0509 15.712C84.0509 16.464 83.4909 17.072 82.3389 17.072C81.2989 17.072 80.5149 16.656 79.7629 16.048L79.0429 17.008C79.8749 17.696 81.0589 18.208 82.2909 18.208ZM90.0312 18.208C91.2313 18.208 92.0953 17.584 92.9113 16.64H92.9593L93.0713 18H94.2873V9.312H92.8313V15.472C91.9993 16.512 91.3753 16.944 90.4793 16.944C89.3273 16.944 88.8473 16.256 88.8473 14.64V9.312H87.3913V14.816C87.3913 17.024 88.2073 18.208 90.0312 18.208ZM99.494 18.208C101.542 18.208 102.662 17.04 102.662 15.632C102.662 13.984 101.27 13.472 100.006 12.992C99.03 12.624 98.134 12.32 98.134 11.488C98.134 10.816 98.646 10.24 99.75 10.24C100.518 10.24 101.126 10.56 101.718 11.008L102.422 10.064C101.75 9.536 100.806 9.088 99.734 9.088C97.846 9.088 96.726 10.176 96.726 11.552C96.726 13.024 98.054 13.616 99.27 14.064C100.23 14.432 101.254 14.816 101.254 15.712C101.254 16.464 100.694 17.072 99.542 17.072C98.502 17.072 97.718 16.656 96.966 16.048L96.246 17.008C97.078 17.696 98.262 18.208 99.494 18.208ZM112.845 18.208C114.365 18.208 115.517 17.6 116.445 16.528L115.628 15.6C114.877 16.416 114.029 16.912 112.909 16.912C110.669 16.912 109.261 15.056 109.261 12.096C109.261 9.168 110.733 7.344 112.957 7.344C113.965 7.344 114.749 7.808 115.357 8.464L116.157 7.504C115.485 6.752 114.365 6.048 112.941 6.048C109.965 6.048 107.741 8.352 107.741 12.144C107.741 15.952 109.933 18.208 112.845 18.208ZM121.864 18.208C123.992 18.208 125.896 16.544 125.896 13.664C125.896 10.768 123.992 9.088 121.864 9.088C119.736 9.088 117.832 10.768 117.832 13.664C117.832 16.544 119.736 18.208 121.864 18.208ZM121.864 16.992C120.36 16.992 119.352 15.664 119.352 13.664C119.352 11.664 120.36 10.304 121.864 10.304C123.368 10.304 124.392 11.664 124.392 13.664C124.392 15.664 123.368 16.992 121.864 16.992ZM128.191 18H129.647V12.416C130.223 10.928 131.119 10.416 131.839 10.416C132.191 10.416 132.399 10.448 132.687 10.56L132.959 9.28C132.687 9.136 132.415 9.088 132.031 9.088C131.055 9.088 130.175 9.792 129.567 10.896H129.519L129.391 9.312H128.191V18ZM134.394 21.664H135.85V18.72L135.818 17.2C136.602 17.84 137.434 18.208 138.218 18.208C140.218 18.208 141.994 16.496 141.994 13.52C141.994 10.848 140.778 9.088 138.538 9.088C137.53 9.088 136.554 9.664 135.77 10.304H135.722L135.594 9.312H134.394V21.664ZM137.978 16.992C137.402 16.992 136.634 16.752 135.85 16.08V11.52C136.698 10.736 137.45 10.32 138.186 10.32C139.834 10.32 140.474 11.616 140.474 13.536C140.474 15.696 139.418 16.992 137.978 16.992ZM147.82 18.208C149.004 18.208 149.932 17.808 150.7 17.312L150.172 16.352C149.532 16.784 148.844 17.04 147.996 17.04C146.348 17.04 145.212 15.856 145.116 14H150.972C151.004 13.792 151.036 13.488 151.036 13.168C151.036 10.688 149.788 9.088 147.58 9.088C145.564 9.088 143.66 10.848 143.66 13.664C143.66 16.528 145.516 18.208 147.82 18.208ZM145.1 12.944C145.276 11.248 146.364 10.256 147.596 10.256C148.956 10.256 149.756 11.2 149.756 12.944H145.1ZM153.175 18H154.631V12.416C155.207 10.928 156.103 10.416 156.823 10.416C157.175 10.416 157.383 10.448 157.671 10.56L157.943 9.28C157.671 9.136 157.399 9.088 157.015 9.088C156.039 9.088 155.159 9.792 154.551 10.896H154.503L154.375 9.312H153.175V18ZM161.588 18.208C163.636 18.208 164.756 17.04 164.756 15.632C164.756 13.984 163.364 13.472 162.1 12.992C161.124 12.624 160.228 12.32 160.228 11.488C160.228 10.816 160.74 10.24 161.844 10.24C162.612 10.24 163.22 10.56 163.812 11.008L164.516 10.064C163.844 9.536 162.9 9.088 161.828 9.088C159.94 9.088 158.82 10.176 158.82 11.552C158.82 13.024 160.148 13.616 161.364 14.064C162.324 14.432 163.348 14.816 163.348 15.712C163.348 16.464 162.788 17.072 161.636 17.072C160.596 17.072 159.812 16.656 159.06 16.048L158.34 17.008C159.172 17.696 160.356 18.208 161.588 18.208ZM173.77 18.208C176.218 18.208 177.754 16.736 177.754 14.88C177.754 13.136 176.698 12.336 175.338 11.744L173.658 11.024C172.746 10.64 171.722 10.208 171.722 9.072C171.722 8.016 172.586 7.344 173.914 7.344C175.002 7.344 175.866 7.776 176.586 8.448L177.37 7.504C176.538 6.64 175.306 6.048 173.914 6.048C171.786 6.048 170.218 7.36 170.218 9.168C170.218 10.88 171.514 11.712 172.602 12.176L174.298 12.912C175.402 13.408 176.25 13.792 176.25 14.992C176.25 16.144 175.322 16.912 173.786 16.912C172.57 16.912 171.386 16.336 170.554 15.456L169.658 16.464C170.682 17.536 172.106 18.208 173.77 18.208ZM182.224 18.208C182.752 18.208 183.328 18.048 183.824 17.888L183.536 16.8C183.248 16.912 182.848 17.024 182.544 17.024C181.536 17.024 181.2 16.416 181.2 15.344V10.496H183.552V9.312H181.2V6.864H179.984L179.808 9.312L178.448 9.392V10.496H179.744V15.312C179.744 17.04 180.368 18.208 182.224 18.208ZM185.519 18H186.975V12.416C187.551 10.928 188.447 10.416 189.167 10.416C189.519 10.416 189.727 10.448 190.015 10.56L190.287 9.28C190.015 9.136 189.743 9.088 189.359 9.088C188.383 9.088 187.503 9.792 186.895 10.896H186.847L186.719 9.312H185.519V18ZM195.054 18.208C196.238 18.208 197.166 17.808 197.934 17.312L197.406 16.352C196.766 16.784 196.078 17.04 195.23 17.04C193.582 17.04 192.446 15.856 192.35 14H198.206C198.238 13.792 198.27 13.488 198.27 13.168C198.27 10.688 197.022 9.088 194.814 9.088C192.798 9.088 190.894 10.848 190.894 13.664C190.894 16.528 192.75 18.208 195.054 18.208ZM192.334 12.944C192.51 11.248 193.598 10.256 194.83 10.256C196.19 10.256 196.99 11.2 196.99 12.944H192.334ZM203.914 18.208C205.098 18.208 206.026 17.808 206.794 17.312L206.266 16.352C205.626 16.784 204.938 17.04 204.09 17.04C202.442 17.04 201.306 15.856 201.21 14H207.066C207.098 13.792 207.13 13.488 207.13 13.168C207.13 10.688 205.882 9.088 203.674 9.088C201.658 9.088 199.754 10.848 199.754 13.664C199.754 16.528 201.61 18.208 203.914 18.208ZM201.194 12.944C201.37 11.248 202.458 10.256 203.69 10.256C205.05 10.256 205.85 11.2 205.85 12.944H201.194ZM211.833 18.208C212.361 18.208 212.937 18.048 213.433 17.888L213.145 16.8C212.857 16.912 212.457 17.024 212.153 17.024C211.145 17.024 210.809 16.416 210.809 15.344V10.496H213.161V9.312H210.809V6.864H209.593L209.417 9.312L208.057 9.392V10.496H209.353V15.312C209.353 17.04 209.977 18.208 211.833 18.208ZM214.966 21.04C216.406 20.432 217.302 19.232 217.302 17.696C217.302 16.624 216.838 15.968 216.07 15.968C215.478 15.968 214.966 16.368 214.966 16.992C214.966 17.664 215.478 18.016 216.038 18.016C216.102 18.016 216.15 18.016 216.214 18C216.214 18.944 215.622 19.728 214.614 20.176L214.966 21.04ZM223.397 18H224.805V11.84C224.805 10.608 224.693 9.36 224.629 8.176H224.693L225.957 10.592L230.229 18H231.749V6.256H230.341V12.368C230.341 13.584 230.453 14.896 230.533 16.08H230.453L229.205 13.664L224.933 6.256H223.397V18ZM234.816 18H236.272V11.696C237.152 10.816 237.76 10.368 238.656 10.368C239.808 10.368 240.304 11.056 240.304 12.688V18H241.76V12.496C241.76 10.272 240.928 9.088 239.104 9.088C237.92 9.088 237.024 9.744 236.192 10.56H236.144L236.016 9.312H234.816V18ZM247.973 18.208C250.101 18.208 252.005 16.544 252.005 13.664C252.005 10.768 250.101 9.088 247.973 9.088C245.845 9.088 243.941 10.768 243.941 13.664C243.941 16.544 245.845 18.208 247.973 18.208ZM247.973 16.992C246.469 16.992 245.461 15.664 245.461 13.664C245.461 11.664 246.469 10.304 247.973 10.304C249.477 10.304 250.501 11.664 250.501 13.664C250.501 15.664 249.477 16.992 247.973 16.992ZM254.3 18H255.756V12.416C256.332 10.928 257.228 10.416 257.948 10.416C258.3 10.416 258.508 10.448 258.796 10.56L259.068 9.28C258.796 9.136 258.524 9.088 258.14 9.088C257.164 9.088 256.284 9.792 255.676 10.896H255.628L255.5 9.312H254.3V18ZM263.707 18.208C265.835 18.208 267.739 16.544 267.739 13.664C267.739 10.768 265.835 9.088 263.707 9.088C261.579 9.088 259.675 10.768 259.675 13.664C259.675 16.544 261.579 18.208 263.707 18.208ZM263.707 16.992C262.203 16.992 261.195 15.664 261.195 13.664C261.195 11.664 262.203 10.304 263.707 10.304C265.211 10.304 266.235 11.664 266.235 13.664C266.235 15.664 265.211 16.992 263.707 16.992ZM270.035 18H271.491V11.696C272.291 10.8 273.027 10.368 273.683 10.368C274.787 10.368 275.299 11.056 275.299 12.688V18H276.755V11.696C277.571 10.8 278.275 10.368 278.947 10.368C280.051 10.368 280.563 11.056 280.563 12.688V18H282.019V12.496C282.019 10.272 281.171 9.088 279.379 9.088C278.323 9.088 277.411 9.776 276.515 10.752C276.163 9.728 275.443 9.088 274.115 9.088C273.075 9.088 272.163 9.744 271.411 10.576H271.363L271.235 9.312H270.035V18ZM285.599 18.208C286.175 18.208 286.655 17.76 286.655 17.104C286.655 16.432 286.175 15.968 285.599 15.968C285.023 15.968 284.543 16.432 284.543 17.104C284.543 17.76 285.023 18.208 285.599 18.208ZM35.632 34.44C36.048 33.112 36.432 31.848 36.8 30.472H36.864C37.248 31.832 37.616 33.112 38.048 34.44L38.608 36.232H35.056L35.632 34.44ZM32.048 41H33.552L34.688 37.416H38.976L40.096 41H41.664L37.68 29.256H36.032L32.048 41ZM47.0148 41.208C49.0148 41.208 50.7908 39.496 50.7908 36.504C50.7908 33.848 49.5748 32.088 47.3188 32.088C46.3588 32.088 45.3828 32.632 44.5988 33.32L44.6468 31.752V28.264H43.1908V41H44.3588L44.4868 40.104H44.5508C45.3028 40.792 46.2148 41.208 47.0148 41.208ZM46.7748 39.992C46.1988 39.992 45.4148 39.752 44.6468 39.08V34.52C45.4788 33.736 46.2468 33.32 46.9828 33.32C48.6308 33.32 49.2708 34.616 49.2708 36.536C49.2708 38.696 48.2148 39.992 46.7748 39.992ZM54.8314 41.208C55.9034 41.208 56.8794 40.648 57.7114 39.96H57.7594L57.8874 41H59.0874V35.656C59.0874 33.512 58.1914 32.088 56.0794 32.088C54.6874 32.088 53.4554 32.712 52.6554 33.224L53.2314 34.232C53.9194 33.768 54.8314 33.304 55.8394 33.304C57.2634 33.304 57.6314 34.376 57.6314 35.496C53.9354 35.912 52.2874 36.856 52.2874 38.744C52.2874 40.312 53.3754 41.208 54.8314 41.208ZM55.2474 40.04C54.3834 40.04 53.7114 39.64 53.7114 38.648C53.7114 37.528 54.7034 36.808 57.6314 36.456V38.888C56.7834 39.64 56.0954 40.04 55.2474 40.04ZM61.8626 41H63.3026V38.712L64.9346 36.808L67.4786 41H69.0626L65.7826 35.816L68.6786 32.312H67.0466L63.3506 36.904H63.3026V28.264H61.8626V41ZM72.5189 41.208C73.5909 41.208 74.5669 40.648 75.3989 39.96H75.4469L75.5749 41H76.7749V35.656C76.7749 33.512 75.8789 32.088 73.7669 32.088C72.3749 32.088 71.1429 32.712 70.3429 33.224L70.9189 34.232C71.6069 33.768 72.5189 33.304 73.5269 33.304C74.9509 33.304 75.3189 34.376 75.3189 35.496C71.6229 35.912 69.9749 36.856 69.9749 38.744C69.9749 40.312 71.0629 41.208 72.5189 41.208ZM72.9349 40.04C72.0709 40.04 71.3989 39.64 71.3989 38.648C71.3989 37.528 72.3909 36.808 75.3189 36.456V38.888C74.4709 39.64 73.7829 40.04 72.9349 40.04ZM81.0861 41.208C81.4861 41.208 81.7261 41.16 81.9341 41.08L81.7261 39.96C81.5661 39.992 81.5021 39.992 81.4221 39.992C81.1981 39.992 81.0061 39.816 81.0061 39.368V28.264H79.5501V39.272C79.5501 40.504 79.9981 41.208 81.0861 41.208ZM84.1126 41H85.5686V32.312H84.1126V41ZM84.8486 30.52C85.4246 30.52 85.8246 30.136 85.8246 29.544C85.8246 28.984 85.4246 28.6 84.8486 28.6C84.2726 28.6 83.8726 28.984 83.8726 29.544C83.8726 30.136 84.2726 30.52 84.8486 30.52ZM88.5189 41H89.9589V38.712L91.5909 36.808L94.1349 41H95.7189L92.4389 35.816L95.3349 32.312H93.7029L90.0069 36.904H89.9589V28.264H88.5189V41ZM97.347 41H98.803V32.312H97.347V41ZM98.083 30.52C98.659 30.52 99.059 30.136 99.059 29.544C99.059 28.984 98.659 28.6 98.083 28.6C97.507 28.6 97.107 28.984 97.107 29.544C97.107 30.136 97.507 30.52 98.083 30.52ZM101.481 44.04C102.921 43.432 103.817 42.232 103.817 40.696C103.817 39.624 103.353 38.968 102.585 38.968C101.993 38.968 101.481 39.368 101.481 39.992C101.481 40.664 101.993 41.016 102.553 41.016C102.617 41.016 102.665 41.016 102.729 41C102.729 41.944 102.137 42.728 101.129 43.176L101.481 44.04ZM109.913 41H116.857V39.736H111.401V35.464H115.849V34.2H111.401V30.52H116.681V29.256H109.913V41ZM123.015 41.208C125.015 41.208 126.791 39.496 126.791 36.504C126.791 33.848 125.575 32.088 123.319 32.088C122.359 32.088 121.383 32.632 120.599 33.32L120.647 31.752V28.264H119.191V41H120.359L120.487 40.104H120.551C121.303 40.792 122.215 41.208 123.015 41.208ZM122.775 39.992C122.199 39.992 121.415 39.752 120.647 39.08V34.52C121.479 33.736 122.247 33.32 122.983 33.32C124.631 33.32 125.271 34.616 125.271 36.536C125.271 38.696 124.215 39.992 122.775 39.992ZM132.457 41.208C134.585 41.208 136.489 39.544 136.489 36.664C136.489 33.768 134.585 32.088 132.457 32.088C130.329 32.088 128.425 33.768 128.425 36.664C128.425 39.544 130.329 41.208 132.457 41.208ZM132.457 39.992C130.953 39.992 129.945 38.664 129.945 36.664C129.945 34.664 130.953 33.304 132.457 33.304C133.961 33.304 134.985 34.664 134.985 36.664C134.985 38.664 133.961 39.992 132.457 39.992ZM138.785 41H140.241V34.696C141.121 33.816 141.729 33.368 142.625 33.368C143.777 33.368 144.273 34.056 144.273 35.688V41H145.729V35.496C145.729 33.272 144.897 32.088 143.073 32.088C141.889 32.088 140.993 32.744 140.161 33.56H140.113L139.985 32.312H138.785V41ZM148.71 44.744C150.438 44.744 151.35 43.432 151.942 41.72L155.222 32.312H153.798L152.246 37.144C152.006 37.912 151.75 38.792 151.51 39.576H151.43C151.158 38.792 150.854 37.896 150.598 37.144L148.822 32.312H147.302L150.79 41.016L150.598 41.672C150.246 42.744 149.622 43.544 148.63 43.544C148.406 43.544 148.15 43.464 147.974 43.4L147.686 44.568C147.958 44.68 148.294 44.744 148.71 44.744ZM156.91 41H158.366V32.312H156.91V41ZM157.646 30.52C158.222 30.52 158.622 30.136 158.622 29.544C158.622 28.984 158.222 28.6 157.646 28.6C157.07 28.6 156.67 28.984 156.67 29.544C156.67 30.136 157.07 30.52 157.646 30.52ZM161.044 44.04C162.484 43.432 163.38 42.232 163.38 40.696C163.38 39.624 162.916 38.968 162.148 38.968C161.556 38.968 161.044 39.368 161.044 39.992C161.044 40.664 161.556 41.016 162.116 41.016C162.18 41.016 162.228 41.016 162.292 41C162.292 41.944 161.7 42.728 160.692 43.176L161.044 44.04ZM169.475 41H170.883V34.84C170.883 33.608 170.771 32.36 170.707 31.176H170.771L172.035 33.592L176.307 41H177.827V29.256H176.419V35.368C176.419 36.584 176.531 37.896 176.611 39.08H176.531L175.283 36.664L171.011 29.256H169.475V41ZM180.894 41H182.35V32.312H180.894V41ZM181.63 30.52C182.206 30.52 182.606 30.136 182.606 29.544C182.606 28.984 182.206 28.6 181.63 28.6C181.054 28.6 180.654 28.984 180.654 29.544C180.654 30.136 181.054 30.52 181.63 30.52ZM188.228 45C190.916 45 192.628 43.608 192.628 41.992C192.628 40.568 191.604 39.928 189.588 39.928H187.892C186.724 39.928 186.372 39.544 186.372 38.984C186.372 38.504 186.612 38.216 186.932 37.944C187.316 38.136 187.796 38.248 188.228 38.248C189.988 38.248 191.396 37.08 191.396 35.224C191.396 34.472 191.108 33.832 190.692 33.432H192.468V32.312H189.444C189.14 32.2 188.708 32.088 188.228 32.088C186.468 32.088 184.964 33.288 184.964 35.192C184.964 36.232 185.524 37.064 186.1 37.528V37.592C185.652 37.912 185.124 38.488 185.124 39.208C185.124 39.896 185.46 40.36 185.924 40.632V40.696C185.108 41.224 184.644 41.928 184.644 42.664C184.644 44.168 186.1 45 188.228 45ZM188.228 37.256C187.22 37.256 186.372 36.456 186.372 35.192C186.372 33.912 187.204 33.16 188.228 33.16C189.252 33.16 190.084 33.928 190.084 35.192C190.084 36.456 189.22 37.256 188.228 37.256ZM188.436 44.008C186.868 44.008 185.924 43.4 185.924 42.472C185.924 41.96 186.18 41.448 186.804 41C187.188 41.096 187.604 41.144 187.924 41.144H189.428C190.58 41.144 191.204 41.416 191.204 42.216C191.204 43.128 190.1 44.008 188.436 44.008ZM197.585 41.208C198.769 41.208 199.697 40.808 200.465 40.312L199.937 39.352C199.297 39.784 198.609 40.04 197.761 40.04C196.113 40.04 194.977 38.856 194.881 37H200.737C200.769 36.792 200.801 36.488 200.801 36.168C200.801 33.688 199.553 32.088 197.345 32.088C195.329 32.088 193.425 33.848 193.425 36.664C193.425 39.528 195.281 41.208 197.585 41.208ZM194.865 35.944C195.041 34.248 196.129 33.256 197.361 33.256C198.721 33.256 199.521 34.2 199.521 35.944H194.865ZM202.941 41H204.397V35.416C204.973 33.928 205.869 33.416 206.589 33.416C206.941 33.416 207.149 33.448 207.437 33.56L207.709 32.28C207.437 32.136 207.165 32.088 206.781 32.088C205.805 32.088 204.925 32.792 204.317 33.896H204.269L204.141 32.312H202.941V41ZM209.144 41H210.6V32.312H209.144V41ZM209.88 30.52C210.456 30.52 210.856 30.136 210.856 29.544C210.856 28.984 210.456 28.6 209.88 28.6C209.304 28.6 208.904 28.984 208.904 29.544C208.904 30.136 209.304 30.52 209.88 30.52ZM215.55 41.208C216.622 41.208 217.598 40.648 218.43 39.96H218.478L218.606 41H219.806V35.656C219.806 33.512 218.91 32.088 216.798 32.088C215.406 32.088 214.174 32.712 213.374 33.224L213.95 34.232C214.638 33.768 215.55 33.304 216.558 33.304C217.982 33.304 218.35 34.376 218.35 35.496C214.654 35.912 213.006 36.856 213.006 38.744C213.006 40.312 214.094 41.208 215.55 41.208ZM215.966 40.04C215.102 40.04 214.43 39.64 214.43 38.648C214.43 37.528 215.422 36.808 218.35 36.456V38.888C217.502 39.64 216.814 40.04 215.966 40.04ZM223.333 41.208C223.909 41.208 224.389 40.76 224.389 40.104C224.389 39.432 223.909 38.968 223.333 38.968C222.757 38.968 222.277 39.432 222.277 40.104C222.277 40.76 222.757 41.208 223.333 41.208Z" fill="white"/>
<path d="M17.9999 13.25C15.7499 18.5 11.9999 24.5 11.9999 24.5C11.9999 24.5 8.24994 18.5 5.99994 13.25C3.74994 8 7.49994 3.5 11.9999 3.5C16.4999 3.5 20.2499 8 17.9999 13.25Z" stroke="#CBAB84" stroke-linecap="round" stroke-linejoin="round"/>
<path d="M12 13.25C13.6569 13.25 15 11.9069 15 10.25C15 8.59315 13.6569 7.25 12 7.25C10.3431 7.25 9 8.59315 9 10.25C9 11.9069 10.3431 13.25 12 13.25Z" stroke="#CBAB84" stroke-linecap="round" stroke-linejoin="round"/>
</svg>
