<svg width="24" height="24" viewBox="0 0 24 24" fill="none" xmlns="http://www.w3.org/2000/svg">
<path d="M20.1512 17.5104L20.1507 17.5099L16.0857 13.814C16.0857 13.814 16.0857 13.814 16.0857 13.8139C15.9895 13.7266 15.8632 13.68 15.7333 13.684C15.6034 13.688 15.4801 13.7423 15.3895 13.8355L15.3895 13.8356L12.9965 16.2966L12.8088 16.4896L12.5442 16.4391C11.8893 16.314 10.6344 15.9143 9.35893 14.642L9.35834 14.6414C8.08296 13.365 7.68265 12.1066 7.56056 11.4539L7.51131 11.1906L7.70325 11.0037L10.1623 8.60974L10.1629 8.60915C10.2561 8.51871 10.3104 8.39556 10.3144 8.26575C10.3185 8.13595 10.2718 8.00967 10.1844 7.91365L10.1841 7.91335L6.48909 3.84935L6.4889 3.84915C6.40142 3.75283 6.27984 3.6944 6.14998 3.68628C6.02017 3.67816 5.89232 3.72094 5.79353 3.80554C5.79349 3.80557 5.79345 3.80561 5.7934 3.80565L3.64096 5.65159C3.56131 5.7369 3.51388 5.84755 3.50723 5.96441L3.50714 5.96594C3.49437 6.17878 3.21799 11.9118 7.65255 16.3484C7.65259 16.3484 7.65263 16.3485 7.65267 16.3485M20.1512 17.5104L18.064 20.992C18.031 20.994 17.907 21 17.705 21C16.323 21 11.305 20.707 7.29904 16.702L7.65267 16.3485M20.1512 17.5104C20.2472 17.5975 20.3055 17.7188 20.3134 17.8482C20.3213 17.9777 20.2783 18.1051 20.1935 18.2033L20.1923 18.2047L18.3465 20.3592M20.1512 17.5104L18.3465 20.3592M7.65267 16.3485C11.5188 20.2136 16.3719 20.5 17.705 20.5C17.8978 20.5 18.0117 20.4942 18.0338 20.4929L18.0361 20.4928C18.1523 20.4863 18.2622 20.4388 18.3465 20.3592M7.65267 16.3485L18.3465 20.3592" stroke="#CBAB84"/>
</svg>
