<svg width="317" height="382" viewBox="0 0 317 382" fill="none" xmlns="http://www.w3.org/2000/svg">
<path d="M102.958 60.3664L102.286 63.9645L102.231 64.26L102.348 64.537L105.958 73.0899L106.043 73.2906L106.203 73.4378L128.474 93.8763L128.604 93.9953L128.767 94.0629L138.653 98.1729L139.038 98.333L139.423 98.172L147.254 94.8952L147.603 94.7489L147.768 94.4076L153.267 83.0219L153.332 82.8862L153.355 82.7372L160.182 37.7836L178.485 35.6614L194.769 37.0414L195.043 37.0646L195.29 36.945L205.953 31.7799L206.216 31.6525L206.369 31.4035L215.943 15.8258L234.395 13.8238L234.968 13.7615L235.201 13.2335L240.362 1.54633L248.821 7.79417L253.411 31.0734L253.455 31.2969L253.591 31.4793L262.888 43.8932L265.569 59.7054L265.61 59.9475L265.759 60.1431L276.811 74.6944L276.907 74.8211L277.038 74.9116L291.743 85.0959L294.42 94.2534L294.502 94.5333L294.721 94.7253L301.465 100.626L300.935 110.916L300.907 111.464L301.354 111.783L303.951 113.631L306.134 121.617L306.227 121.957L306.512 122.163L313.872 127.497L315.043 132.618L310.813 141.28L299.157 143.25L298.845 143.302L298.62 143.524L289.457 152.577L289.157 152.874L289.159 153.295L289.215 162.181L289.217 162.499L289.402 162.757L299.541 176.93L299.439 184.025L261.229 230.352L261.168 230.426L261.122 230.51L256.679 238.675L256.567 238.88L256.558 239.114L256.008 253.374L252.333 265.804L248.368 270.099L236.953 263.502L236.648 263.326L236.3 263.379L225.859 264.99L225.178 265.095L225.033 265.769L223.555 272.688L211.751 281.863L199.905 286.086L199.585 286.2L199.4 286.486L192.831 296.684L178.717 273.074L178.402 272.547L177.79 272.59L163.239 273.589L163.049 273.602L162.878 273.684L150.27 279.682L149.814 279.899L149.718 280.395L148.663 285.838L148.587 286.227L148.8 286.563L154.966 296.3L154.544 309.079L143.779 321.53L143.623 321.71L143.565 321.94L141.754 329.131L133.885 335.923L133.474 336.277L133.547 336.814L135.491 351.18L122.742 368.125L122.593 368.324L122.553 368.569L120.6 380.858L114.381 379.883L96.8909 367.188L93.2423 361.767L92.0455 349.854L92.0206 349.606L91.8826 349.399L84.9957 339.069L84.7203 338.656L84.2246 338.625L6.37412 333.874L1.66177 328.71L1.4167 325.133L4.44693 309.377L4.46646 309.275L4.4648 309.172L4.08838 285.729L22.9921 280.469L33.6397 289.565L33.871 289.763L34.1731 289.798L38.0557 290.252L49.5191 303.889L49.7822 304.202L50.1891 304.241L54.2436 304.629L54.956 304.698L55.2505 304.045L58.8605 296.048L59.0087 295.719L58.9135 295.372L54.4984 279.256L53.6962 265.14L68.2168 250.293L68.3372 250.17L68.4095 250.014L72.8526 240.405L72.9781 240.134L72.934 239.838L67.4357 202.96L67.429 202.915L67.4183 202.871L63.9749 188.709L63.908 188.434L63.707 188.235L58.0116 182.592L58.1125 176.393L73.2462 142.646L73.3334 142.451L73.3337 142.238L73.3893 109.914L73.3898 109.65L73.2599 109.42L69.7495 103.21L67.6622 85.1383L67.6519 85.0495L67.6261 84.9639L59.8323 59.1603L94.1869 62.0897L94.3291 62.1019L94.469 62.0737L102.958 60.3664Z" fill="white" fill-opacity="0.2" stroke="#CBAB84" stroke-width="2"/>
<path d="M114.226 206H122.92V204.908H115.486V198.419H121.555V197.348H115.486V191.762H122.689V190.691H114.226V206ZM130.632 206.273C133.257 206.273 135.567 204.047 135.567 200.225C135.567 196.781 134.055 194.513 131.073 194.513C129.729 194.513 128.406 195.29 127.293 196.235L127.356 194.093V189.305H126.138V206H127.125L127.272 204.866H127.314C128.343 205.727 129.582 206.273 130.632 206.273ZM130.527 205.202C129.708 205.202 128.511 204.845 127.356 203.837V197.369C128.616 196.214 129.771 195.584 130.842 195.584C133.341 195.584 134.265 197.537 134.265 200.225C134.265 203.228 132.711 205.202 130.527 205.202ZM142.928 206.273C145.637 206.273 147.989 204.131 147.989 200.414C147.989 196.676 145.637 194.513 142.928 194.513C140.219 194.513 137.867 196.676 137.867 200.414C137.867 204.131 140.219 206.273 142.928 206.273ZM142.928 205.223C140.744 205.223 139.148 203.27 139.148 200.414C139.148 197.558 140.744 195.584 142.928 195.584C145.112 195.584 146.729 197.558 146.729 200.414C146.729 203.27 145.112 205.223 142.928 205.223ZM151.26 206H152.478V197.621C153.78 196.277 154.704 195.605 156.006 195.605C157.728 195.605 158.463 196.676 158.463 199.007V206H159.681V198.839C159.681 195.962 158.61 194.513 156.279 194.513C154.746 194.513 153.591 195.395 152.457 196.508H152.415L152.268 194.807H151.26V206ZM163.393 211.04C165.451 211.04 166.606 209.234 167.257 207.302L171.625 194.807H170.386L168.097 201.653C167.782 202.619 167.425 203.795 167.089 204.803H166.984C166.585 203.795 166.165 202.619 165.808 201.653L163.204 194.807H161.881L166.459 206.168L166.165 207.113C165.619 208.73 164.716 209.948 163.372 209.948C163.057 209.948 162.7 209.864 162.469 209.78L162.196 210.809C162.511 210.956 162.952 211.04 163.393 211.04ZM174.003 206H175.221V194.807H174.003V206ZM174.633 192.182C175.179 192.182 175.599 191.783 175.599 191.153C175.599 190.565 175.179 190.187 174.633 190.187C174.066 190.187 173.646 190.565 173.646 191.153C173.646 191.783 174.066 192.182 174.633 192.182ZM188.231 206.273C191.234 206.273 193.187 204.467 193.187 202.115C193.187 199.784 191.717 198.818 189.974 198.041L187.685 197.033C186.572 196.55 185.081 195.899 185.081 194.156C185.081 192.581 186.383 191.552 188.336 191.552C189.848 191.552 191.045 192.161 191.948 193.085L192.662 192.266C191.696 191.216 190.184 190.418 188.336 190.418C185.732 190.418 183.8 191.993 183.8 194.261C183.8 196.508 185.543 197.474 186.908 198.083L189.197 199.091C190.709 199.763 191.906 200.351 191.906 202.199C191.906 203.942 190.499 205.139 188.231 205.139C186.488 205.139 184.913 204.362 183.8 203.102L183.023 203.984C184.241 205.349 186.005 206.273 188.231 206.273ZM198.871 206.273C199.375 206.273 200.089 206.084 200.74 205.853L200.446 204.887C200.047 205.076 199.501 205.223 199.081 205.223C197.59 205.223 197.212 204.299 197.212 202.892V195.836H200.425V194.807H197.212V191.573H196.183L196.036 194.807L194.251 194.912V195.836H195.994V202.808C195.994 204.887 196.666 206.273 198.871 206.273ZM205.069 206.273C206.497 206.273 207.841 205.496 208.975 204.572H209.017L209.143 206H210.172V198.902C210.172 196.424 209.227 194.513 206.56 194.513C204.733 194.513 203.179 195.395 202.318 195.983L202.864 196.865C203.641 196.277 204.922 195.584 206.392 195.584C208.513 195.584 208.996 197.306 208.954 198.965C204.019 199.532 201.814 200.708 201.814 203.186C201.814 205.265 203.263 206.273 205.069 206.273ZM205.321 205.244C204.082 205.244 203.032 204.656 203.032 203.123C203.032 201.401 204.544 200.372 208.954 199.868V203.501C207.631 204.656 206.56 205.244 205.321 205.244ZM216.959 206.273C217.463 206.273 218.177 206.084 218.828 205.853L218.534 204.887C218.135 205.076 217.589 205.223 217.169 205.223C215.678 205.223 215.3 204.299 215.3 202.892V195.836H218.513V194.807H215.3V191.573H214.271L214.124 194.807L212.339 194.912V195.836H214.082V202.808C214.082 204.887 214.754 206.273 216.959 206.273ZM225.209 206.273C226.826 206.273 227.876 205.748 228.779 205.181L228.317 204.278C227.477 204.866 226.532 205.244 225.335 205.244C222.92 205.244 221.303 203.333 221.24 200.603H229.178C229.22 200.33 229.241 200.036 229.241 199.721C229.241 196.445 227.624 194.513 224.915 194.513C222.395 194.513 220.001 196.781 220.001 200.414C220.001 204.089 222.332 206.273 225.209 206.273ZM221.24 199.637C221.471 197.075 223.109 195.563 224.936 195.563C226.889 195.563 228.128 196.928 228.128 199.637H221.24Z" fill="white"/>
</svg>
